HIERARCHY
ROOT Hips
{
	OFFSET	0.00	0.00	0.00
	CHANNELS 6 Xposition Yposition Zposition Zrotation Xrotation Yrotation
	JOINT Chest
	{
		OFFSET	0.000000	6.275751	0.000000
		CHANNELS 3 Zrotation Xrotation Yrotation
		JOINT Neck
		{
			OFFSET	0.000000	14.296947	0.000000
			CHANNELS 3 Zrotation Xrotation Yrotation
			JOINT Head
			{
				OFFSET	0.000000	2.637461	0.000000
				CHANNELS 3 Zrotation Xrotation Yrotation
				End Site
				{
					OFFSET	0.000000	4.499004	0.000000
				}
			}
		}
		JOINT LeftCollar
		{
			OFFSET	1.120000	11.362855	1.870000
			CHANNELS 3 Zrotation Xrotation Yrotation
			JOINT LeftUpArm
			{
				OFFSET	4.565688	2.019026	-1.821179
				CHANNELS 3 Zrotation Xrotation Yrotation
				JOINT LeftLowArm
				{
					OFFSET	0.219729	-10.348825	-0.061708
					CHANNELS 3 Zrotation Xrotation Yrotation
					JOINT LeftHand
					{
						OFFSET	0.087892	-10.352228	2.178217
						CHANNELS 3 Zrotation Xrotation Yrotation
						End Site
						{
							OFFSET	0.131837	-6.692379	1.711456
						}
					}
				}
			}
		}
		JOINT RightCollar
		{
			OFFSET	-1.120000	11.362855	1.870000
			CHANNELS 3 Zrotation Xrotation Yrotation
			JOINT RightUpArm
			{
				OFFSET	-4.708080	2.034554	-1.821179
				CHANNELS 3 Zrotation Xrotation Yrotation
				JOINT RightLowArm
				{
					OFFSET	-0.263676	-10.428555	-0.061708
					CHANNELS 3 Zrotation Xrotation Yrotation
					JOINT RightHand
					{
						OFFSET	0.000000	-10.255345	2.178217
						CHANNELS 3 Zrotation Xrotation Yrotation
						End Site
						{
							OFFSET	-0.140882	-6.671274	1.711456
						}
					}
				}
			}
		}
	}
	JOINT LeftUpLeg
	{
		OFFSET	3.910000	0.000000	0.000000
		CHANNELS 3 Zrotation Xrotation Yrotation
		JOINT LeftLowLeg
		{
			OFFSET	-0.441177	-17.569450	1.695613
			CHANNELS 3 Zrotation Xrotation Yrotation
			JOINT LeftFoot
			{
				OFFSET	-0.043946	-17.197315	-1.478076
				CHANNELS 3 Zrotation Xrotation Yrotation
				End Site
				{
					OFFSET	0.000000	-3.933155	5.233925
				}
			}
		}
	}
	JOINT RightUpLeg
	{
		OFFSET	-3.910000	0.000000	0.000000
		CHANNELS 3 Zrotation Xrotation Yrotation
		JOINT RightLowLeg
		{
			OFFSET	0.437741	-17.622387	1.695613
			CHANNELS 3 Zrotation Xrotation Yrotation
			JOINT RightFoot
			{
				OFFSET	0.000000	-17.140001	-1.478076
				CHANNELS 3 Zrotation Xrotation Yrotation
				End Site
				{
					OFFSET	0.000000	-4.038528	5.233925
				}
			}
		}
	}
}
MOTION
Frames: 7
Frame Time: 0.04166667
-5.059986	8.017372	1.217921	-22.729752	-0.791296	45.693951	1.206840	17.224247	2.111909	10.886870	-2.198881	39.306961	-27.435677	-8.009677	-12.779874	5.557983	17.340559	-9.523270	18.393185	-36.992706	-24.034107	9.019793	-47.589436	-20.915226	-0.678544	2.463501	-0.144204	18.667973	7.604856	-1.174094	-25.164892	-24.421013	5.957769	-11.893713	-43.850075	29.500845	-15.221481	2.828143	-3.228306	16.688400	-17.376322	16.056471	-1.287347	11.398013	1.108168	-11.127502	14.007275	3.614361	-1.074975	0.327068	-15.695518	1.951793	-9.174863	5.782238	5.898557	25.170618	1.900684	
-4.286344	8.075968	1.283630	-20.638426	-1.659635	45.066326	1.544425	16.556391	2.150109	10.839066	-1.531820	39.031109	-26.920925	-7.222723	-12.125577	5.839058	16.136757	-10.618749	17.692646	-35.017464	-24.889423	8.754616	-47.761536	-20.074465	-2.454072	2.473792	-0.521413	18.367516	6.977798	-1.014333	-24.863249	-23.389482	5.883985	-11.671079	-44.321419	28.294758	-14.986320	2.815009	-3.179519	15.287008	-14.461474	15.890032	-1.337412	11.249327	0.827903	-11.865115	15.425795	4.150408	-2.046157	1.408955	-12.503940	1.981950	-9.170552	6.121979	7.450567	25.949577	0.991911	
-3.872163	8.084953	1.359724	-18.543818	-2.333461	44.272495	1.902918	15.551582	2.124035	10.651871	-0.493249	38.672340	-26.429651	-6.184108	-11.379981	6.303025	13.847308	-12.185563	16.658014	-31.876463	-25.761002	8.608982	-47.980129	-19.545103	-3.672126	2.487585	-0.779893	17.600721	5.757925	-0.459867	-24.115688	-21.404327	5.979231	-11.377551	-44.308178	27.297472	-17.111610	2.941061	-3.618371	13.753210	-11.554446	15.956131	-1.376286	11.075686	0.608593	-12.804823	16.728893	4.777935	-3.621680	-0.586487	-9.197766	2.084019	-3.759513	5.726174	9.891319	24.222292	-0.082089	
-2.912664	8.058233	1.435243	-16.371443	-2.933688	43.340977	2.232242	14.779984	2.089415	10.418348	0.443388	38.361488	-25.916269	-4.826044	-10.492310	6.616691	12.183564	-13.243859	15.850955	-29.693670	-26.686787	8.552894	-48.022655	-19.368004	-4.266238	2.496315	-0.905895	16.979872	4.855789	-0.081504	-23.514910	-19.933573	6.248446	-11.416095	-44.590702	27.188791	-16.144686	2.881668	-3.419256	12.003658	-8.562469	16.171337	-1.416048	10.858088	0.383437	-13.283241	17.812006	5.202853	-4.295788	-1.748786	-7.950901	2.177812	-0.661265	5.865776	9.991117	23.697338	-0.054294	
-2.140829	7.991851	1.521409	-14.400715	-3.432646	42.188137	2.628566	13.873700	2.170492	10.267567	1.474695	38.213772	-25.581877	-3.202027	-9.581493	7.026911	10.485299	-14.408504	15.058331	-27.429585	-27.250778	8.612720	-48.059296	-19.507587	-4.733035	2.504099	-1.004817	16.446775	3.971974	0.323473	-22.991631	-18.418131	7.063046	-11.499596	-45.011684	27.108534	-15.021104	2.816938	-3.186757	10.413245	-6.022263	16.694681	-1.473964	11.194682	0.058332	-13.840709	18.670647	5.628883	-4.402457	-2.926035	-7.730512	2.214018	1.600584	5.685785	9.405652	23.284136	0.305862	
-0.828001	7.909702	1.601907	-12.483364	-3.771680	41.075306	3.031043	13.113545	2.003297	10.110234	2.461086	38.402775	-25.511858	-1.595970	-8.797516	7.332343	8.947757	-15.454329	14.484665	-25.322006	-27.553495	8.922318	-48.492264	-20.075842	-3.612298	2.486817	-0.767227	15.869968	3.188350	0.724359	-22.497082	-17.260483	7.600262	-11.527375	-45.268574	26.978922	-14.141208	2.769409	-3.003863	8.702608	-3.669473	17.109837	-1.485271	11.366777	-0.000960	-15.320820	19.493053	6.481313	-4.203312	-3.680332	-8.495949	2.264264	2.420671	5.921468	8.700104	22.941713	0.708366	
0.113055	7.808046	1.686355	-10.564229	-4.098284	40.089046	3.389916	12.802217	1.701418	10.048944	3.194244	38.711002	-25.574017	-0.103780	-8.112134	7.622893	8.071856	-16.080320	14.127607	-24.218967	-27.605263	8.491761	-48.382011	-18.990932	-3.876055	2.490477	-0.823165	15.405375	2.805514	0.854710	-22.028667	-16.991966	8.114870	-11.318159	-45.447739	26.138224	-14.611062	2.794398	-3.101612	6.981747	-1.646707	17.867001	-1.550807	11.856326	-0.353822	-15.919877	20.760998	7.075155	-3.629231	-3.671529	-9.626345	2.316272	1.525151	6.531733	7.931929	22.617125	1.131152	
